<svg width="24" height="21" viewBox="0 0 24 21" fill="none" xmlns="http://www.w3.org/2000/svg">
<path d="M21.0746 4.81002H20.7388V2.11169C20.7352 1.55605 20.4864 1.02407 20.0463 0.631167C19.6062 0.238264 19.0103 0.0161408 18.3878 0.0129926C18.2812 -0.00433086 18.172 -0.00433086 18.0654 0.0129926L2.07921 4.81002H1.93144H1.7165L1.48812 4.88198H1.30005L1.08511 4.98991L0.923901 5.19379L0.735827 5.3377L0.588056 5.45762L0.42685 5.63751C0.383869 5.67193 0.347556 5.71245 0.31938 5.75744C0.269518 5.82678 0.224648 5.89888 0.185042 5.9733L0.104439 6.10522C0.0670364 6.19135 0.0356308 6.27947 0.0104022 6.36906C0.0164452 6.41287 0.0164452 6.45717 0.0104022 6.50098C-0.0034674 6.63661 -0.0034674 6.77309 0.0104022 6.90872V18.9013C0.0132219 19.4428 0.24905 19.9626 0.669114 20.3532C1.08918 20.7438 1.66134 20.9754 2.26728 21H21.0746C21.697 20.9969 22.2929 20.7747 22.7331 20.3818C23.1732 19.9889 23.422 19.4569 23.4255 18.9013V6.90872C23.422 6.35308 23.1732 5.8211 22.7331 5.4282C22.2929 5.03529 21.697 4.81317 21.0746 4.81002ZM18.4953 1.82387C18.5615 1.84566 18.6187 1.88481 18.6595 1.93619C18.7002 1.98756 18.7226 2.04874 18.7237 2.11169V4.81002H8.4737L18.4953 1.82387ZM21.4104 18.9013C21.4104 18.9808 21.3751 19.0571 21.3121 19.1133C21.2491 19.1695 21.1637 19.2011 21.0746 19.2011H2.26728C2.17821 19.2011 2.09279 19.1695 2.0298 19.1133C1.96682 19.0571 1.93144 18.9808 1.93144 18.9013V6.90872C1.93144 6.82921 1.96682 6.75295 2.0298 6.69672C2.09279 6.6405 2.17821 6.60891 2.26728 6.60891H21.0746C21.1637 6.60891 21.2491 6.6405 21.3121 6.69672C21.3751 6.75295 21.4104 6.82921 21.4104 6.90872V18.9013Z" fill="#FAFAFA" fill-opacity="0.980392"/>
<path d="M17.7162 14.4041C18.6436 14.4041 19.3954 13.7329 19.3954 12.905C19.3954 12.0771 18.6436 11.4059 17.7162 11.4059C16.7887 11.4059 16.0369 12.0771 16.0369 12.905C16.0369 13.7329 16.7887 14.4041 17.7162 14.4041Z" fill="#FAFAFA" fill-opacity="0.980392"/>
</svg>
