<svg width="23" height="28" viewBox="0 0 23 28" fill="none" xmlns="http://www.w3.org/2000/svg">
<path d="M22.6252 9.2L13.2037 0.352C12.9643 0.126892 12.6395 0.000280083 12.3007 0H4.68519C3.4426 0 2.2509 0.46357 1.37226 1.28873C0.493616 2.11389 0 3.23305 0 4.4V23.6C0 24.767 0.493616 25.8861 1.37226 26.7113C2.2509 27.5364 3.4426 28 4.68519 28H18.3148C19.5574 28 20.7491 27.5364 21.6277 26.7113C22.5064 25.8861 23 24.767 23 23.6V10C22.9866 9.69857 22.8528 9.41294 22.6252 9.2ZM13.6296 4.096L18.6385 8.8H13.6296V4.096ZM18.3148 25.6H4.68519C4.12037 25.6 3.57869 25.3893 3.17931 25.0142C2.77993 24.6391 2.55556 24.1304 2.55556 23.6V4.4C2.55556 3.86957 2.77993 3.36086 3.17931 2.98579C3.57869 2.61071 4.12037 2.4 4.68519 2.4H11.0741V10C11.0785 10.317 11.2145 10.6198 11.4532 10.8439C11.6919 11.0681 12.0143 11.1959 12.3519 11.2H20.4444V23.6C20.4444 24.1304 20.2201 24.6391 19.8207 25.0142C19.4213 25.3893 18.8796 25.6 18.3148 25.6Z" fill="#FAFAFA" fill-opacity="0.980392"/>
</svg>
