<svg width="24" height="21" viewBox="0 0 24 21" fill="none" xmlns="http://www.w3.org/2000/svg">
<path d="M22.4521 10.0532C22.2344 10.0541 22.0224 9.98349 21.8489 9.8521L11.7287 2.26531L1.60851 9.8521C1.39521 10.0121 1.12709 10.0808 0.863147 10.0431C0.5992 10.0053 0.361043 9.86433 0.201067 9.65103C0.0410916 9.43773 -0.0275986 9.16962 0.010108 8.90567C0.0478147 8.64172 0.188829 8.40357 0.40213 8.24359L11.1255 0.201063C11.2995 0.0705511 11.5112 0 11.7287 0C11.9462 0 12.1579 0.0705511 12.3319 0.201063L23.0552 8.24359C23.2499 8.40169 23.3784 8.62683 23.4156 8.87482C23.4528 9.12282 23.396 9.37576 23.2563 9.58401C23.1709 9.72205 23.0529 9.83702 22.9126 9.91881C22.7724 10.0006 22.6143 10.0467 22.4521 10.0532Z" fill="#FAFAFA" fill-opacity="0.980392"/>
<path d="M19.7712 20.7765H3.68616C3.42062 20.773 3.16692 20.666 2.97914 20.4782C2.79135 20.2904 2.68432 20.0367 2.68085 19.7712V7.03719C2.68085 6.77057 2.78676 6.51486 2.9753 6.32633C3.16383 6.13779 3.41954 6.03188 3.68616 6.03188C3.95279 6.03188 4.2085 6.13779 4.39703 6.32633C4.58556 6.51486 4.69148 6.77057 4.69148 7.03719V18.7659H18.7659V7.03719C18.7659 6.77057 18.8718 6.51486 19.0604 6.32633C19.2489 6.13779 19.5046 6.03188 19.7712 6.03188C20.0378 6.03188 20.2935 6.13779 20.4821 6.32633C20.6706 6.51486 20.7765 6.77057 20.7765 7.03719V19.7712C20.7731 20.0367 20.666 20.2904 20.4782 20.4782C20.2905 20.666 20.0368 20.773 19.7712 20.7765Z" fill="#FAFAFA" fill-opacity="0.980392"/>
<path d="M14.4095 21C14.144 20.9965 13.8903 20.8895 13.7025 20.7017C13.5147 20.5139 13.4077 20.2602 13.4042 19.9947V11.6171H10.0531V19.9947C10.0531 20.2613 9.94722 20.517 9.75869 20.7056C9.57016 20.8941 9.31445 21 9.04783 21C8.7812 21 8.52549 20.8941 8.33696 20.7056C8.14843 20.517 8.04251 20.2613 8.04251 19.9947V10.6117C8.04598 10.3462 8.15301 10.0925 8.3408 9.90472C8.52859 9.71693 8.78228 9.6099 9.04783 9.60643H14.4095C14.6751 9.6099 14.9288 9.71693 15.1165 9.90472C15.3043 10.0925 15.4114 10.3462 15.4148 10.6117V19.9947C15.4114 20.2602 15.3043 20.5139 15.1165 20.7017C14.9288 20.8895 14.6751 20.9965 14.4095 21Z" fill="#FAFAFA" fill-opacity="0.980392"/>
</svg>
